<svg width="16" height="16" viewBox="0 0 16 16" fill="none" xmlns="http://www.w3.org/2000/svg">
<path d="M2 3.99996C2 3.64634 2.14048 3.3072 2.39052 3.05715C2.64057 2.8071 2.97971 2.66663 3.33333 2.66663H4.49667C4.82122 2.66677 5.13458 2.78529 5.378 2.99996L6.89267 4.33329C7.13608 4.54797 7.44944 4.66648 7.774 4.66663H12.6667C13.0203 4.66663 13.3594 4.8071 13.6095 5.05715C13.8595 5.3072 14 5.64634 14 5.99996V12C14 12.3536 13.8595 12.6927 13.6095 12.9428C13.3594 13.1928 13.0203 13.3333 12.6667 13.3333H3.33333C2.97971 13.3333 2.64057 13.1928 2.39052 12.9428C2.14048 12.6927 2 12.3536 2 12V3.99996Z" stroke="black" stroke-linecap="round" stroke-linejoin="round"/>
</svg>
