<svg width="32" height="32" viewBox="0 0 32 32" fill="none" xmlns="http://www.w3.org/2000/svg">
<path d="M1 16.6001C1 23.2001 7.7 31.0001 16 31.0001C24.3 31.0001 31 23.2001 31 16.6001H1Z" fill="#B2C1C0"/>
<path d="M31 16.5999C31 20.8499 24.3 24.2999 16 24.2999C7.7 24.2999 1 20.8499 1 16.5999C1 12.3499 7.7 8.8999 16 8.8999C24.3 8.8999 31 12.3499 31 16.5999Z" fill="#E8E8E8"/>
<path d="M16.0002 23.3C8.4002 23.3 1.9502 20.2 1.9502 16.55C1.9502 12.9 8.4002 9.80005 16.0002 9.80005C23.6002 9.80005 30.0502 12.9 30.0502 16.55C30.0502 20.25 23.6002 23.3 16.0002 23.3Z" fill="#B2C1C0"/>
<path d="M6.25 8.19995C6.3 9.04995 6.7 11.9 6.35 13.2C8.55 13.6 6.9 9.34995 6.25 8.19995Z" fill="#699635"/>
<path d="M27.8004 13.8501C28.8004 11.5501 27.2504 9.15006 26.2504 10.5501C25.2504 11.9501 26.0004 12.8501 23.4504 12.3501C22.9004 11.4001 24.2504 8.50006 23.4504 7.95006C22.1504 7.10006 22.1504 10.3001 20.6504 8.45006C19.1504 6.65006 19.1004 10.9001 16.8504 10.9001C15.7504 10.9001 17.3004 7.60006 14.8004 6.95006C12.3004 6.30006 13.0004 9.15006 10.0004 7.50006C7.00039 5.85006 5.45039 8.35006 6.85039 9.40006C8.20039 10.4501 7.10039 12.5501 6.90039 13.3501C5.20039 12.5501 5.30039 16.0001 5.35039 16.5501C4.15039 16.9501 2.20039 17.8001 2.15039 17.8501C3.40039 20.8501 9.20039 23.3001 16.0004 23.3001C23.6004 23.3001 30.0504 20.2001 30.0504 16.5501C30.0504 12.8501 26.1504 17.6001 27.8004 13.8501Z" fill="#83BF4F"/>
<path d="M19.1502 18C20.4002 15.35 17.3502 16.45 16.2002 17.6C16.1502 15.7 17.1502 14.5 18.0002 13.2C16.6002 14.2 15.1002 15.35 13.4502 15.95C14.4002 17.05 14.9002 18.55 15.1002 20C19.1002 20.4 18.2002 22.3 18.0002 23.25C22.7502 22.9 17.9502 20.6 19.1502 18Z" fill="#699635"/>
<path d="M8.64975 11.4001C7.84975 12.2001 7.59975 13.2001 8.09975 13.7001C8.54975 14.2001 9.54975 13.9501 10.3497 13.1501C11.1497 12.3501 11.3997 11.3501 10.8997 10.8501C10.3997 10.4001 9.39975 10.6501 8.64975 11.4001ZM19.1997 20.8001C18.3997 21.6001 18.1497 22.6001 18.6497 23.1001C19.0997 23.6001 20.0997 23.3501 20.8997 22.5501C21.6997 21.7501 21.9497 20.7501 21.4497 20.2501C20.9997 19.7501 19.9997 20.0001 19.1997 20.8001Z" fill="#ED4C5C"/>
<path d="M13.0498 10C11.0998 10.1 10.1998 15.15 8.7998 14.85C9.9498 15.95 10.5498 17.6 10.5498 19.2C10.8498 19.25 11.2998 18.4 11.5498 19.3C11.1998 16.55 11.2998 13.55 13.0498 10Z" fill="#699635"/>
<path d="M21.1999 11.65C21.6999 12.65 21.6499 13.7 21.0499 14C20.4499 14.3 19.5999 13.8 19.0499 12.8C18.5499 11.8 18.5999 10.75 19.1999 10.45C19.7999 10.15 20.6999 10.65 21.1999 11.65Z" fill="#ED4C5C"/>
<path d="M25.05 12.4999C20.8 11.9999 20.15 11.8999 23.7 15.4499C24.65 16.6499 21.05 19.1999 19.75 19.4499C21.4 22.5999 21.7 22.8999 24 22.0999C27.2 20.9999 25.6 17.2499 27.1 18.0499C26.3 16.8499 21.8 16.2999 25.05 12.4999Z" fill="#699635"/>
<path d="M27.6499 15.0499C27.5499 14.4999 28.7499 13.2499 28.4999 11.4999C28.2499 9.89991 26.3999 8.94991 25.8499 10.7999C25.3499 12.4999 23.7499 12.0999 23.7499 12.0999C24.7999 7.99991 24.2499 5.99991 21.9499 8.44991C20.7499 9.69991 21.8499 4.19991 18.0499 10.0499C16.0999 13.0499 16.8999 3.19991 13.3999 6.79991C10.5999 9.64991 8.44985 4.09991 6.59985 7.44991C5.64985 9.19991 7.69985 9.44991 7.14985 12.8499C7.14985 12.8499 5.04985 11.5499 5.24985 15.8499C5.29985 16.5999 1.54985 16.7499 2.39985 17.9999C3.24985 17.6499 8.59985 15.0999 8.29985 17.4499C8.19985 18.1499 7.74985 20.3999 8.99985 20.2999C10.3499 20.1999 11.5999 18.0999 11.6499 20.4999C11.6999 22.3499 12.5999 22.4499 13.8999 21.2999C14.2499 20.9999 14.4999 20.4999 14.9999 20.2999C15.8999 19.9499 16.7499 20.4499 17.5999 20.7499C19.1999 21.3499 18.7499 19.0999 17.6499 18.6999C17.4499 18.6499 16.1999 18.4499 16.2999 18.2499C16.4999 17.6499 17.1999 17.2499 17.6999 16.9999C18.1499 16.7999 18.6499 16.6499 19.1499 16.6499C19.8499 16.6999 19.5999 17.1499 19.4499 17.6999C19.2999 18.3499 19.3999 19.1999 20.0999 19.3999C20.8999 19.6499 21.5499 18.8999 22.0999 18.4499C22.4999 18.0999 25.1499 16.3999 24.2499 18.1999C23.6999 19.2499 21.0499 19.5999 22.2499 21.1499C23.0499 22.1499 24.1499 21.6999 24.7499 20.7499C25.2499 19.9999 25.4499 19.0999 25.6499 18.1999C25.7999 17.4999 25.8499 17.0999 26.5499 17.4499C27.4999 17.9499 28.6999 19.0499 28.7499 17.2499C28.7999 16.0499 29.2499 13.8499 30.2999 15.9499C29.6499 13.1999 27.7499 15.7999 27.6499 15.0499ZM21.1499 18.4499C21.0999 18.4999 19.8499 19.3999 19.6499 18.5499C19.4999 17.8999 20.1499 17.1499 19.7499 16.5999C19.0499 15.6499 17.1999 16.5499 16.4999 17.0499C16.0999 17.3499 15.0999 18.2999 15.8499 18.7499C16.3999 19.0999 17.2499 18.8999 17.7499 19.3999C18.1499 19.7999 18.2499 20.5499 17.5499 20.2499C16.6499 19.8999 15.7499 19.4499 14.7499 19.8499C14.1999 20.0499 12.8499 22.0499 12.1999 21.6499C11.8499 21.4499 11.9999 20.0499 11.9499 19.6499C11.7999 18.4999 10.9999 18.6999 10.2499 19.1499C9.94985 19.3499 9.04985 19.9999 8.69985 19.7499C8.34985 19.4999 8.54985 18.3999 8.59985 18.0499C8.84985 15.8999 7.44985 15.6999 5.64985 16.1999C5.64985 15.5499 5.59985 12.9499 6.79985 13.3999C7.49985 13.6499 9.29985 15.8499 9.94985 14.5999C10.6499 13.2499 13.7499 7.29991 13.7499 11.7499C13.7499 12.9499 12.6999 15.4999 13.5499 16.0999C14.2999 16.5999 16.1999 14.4999 16.6999 14.1999C17.9499 13.3499 19.3499 12.5499 19.9999 14.4499C20.4499 15.6999 20.5499 17.3499 22.0999 17.6999C21.6999 17.9499 21.3999 18.1999 21.1499 18.4499ZM23.5499 16.3499C23.3999 17.2499 22.3499 17.4499 21.6499 17.0499C20.1999 16.1999 20.9999 13.2499 19.1999 12.7999C17.0499 12.2499 14.2499 15.9999 13.8499 15.5999C13.3499 15.0499 14.3999 12.7499 14.2499 11.2499C13.7999 7.39991 10.7999 11.1499 9.59985 14.2499C9.34985 14.8499 7.49985 13.2499 7.49985 13.2499C8.44985 9.14991 6.19985 9.19991 6.89985 7.89991C8.34985 4.99991 10.4999 10.5999 13.4499 7.54991C16.6499 4.29991 15.4499 14.8499 18.4499 10.3999C21.1999 6.34991 20.7499 9.69991 21.3499 9.49991C22.3999 9.14991 24.1999 5.69991 23.2499 12.0499C17.2999 10.9499 23.8499 14.5999 23.5499 16.3499ZM27.9499 17.8999C27.1999 17.7499 26.3999 16.4499 25.4999 16.8999C24.7499 17.2499 24.6999 19.2499 24.3999 19.9499C24.0499 20.7999 22.8999 21.8499 22.1999 20.5999C22.0499 20.2999 24.1999 18.9499 24.4499 18.3499C24.9499 17.1999 23.8999 17.0999 23.9999 16.3499C24.3499 14.0499 18.8499 11.7499 23.7999 12.5999C26.5999 13.0999 25.9499 9.64991 27.2499 10.3999C29.7499 11.8999 25.3999 15.6499 28.1999 15.6999C27.9999 16.4499 28.0999 17.1999 27.9499 17.8999Z" fill="#C7E755"/>
<path d="M4.29994 17.3C5.09994 18.05 5.34994 19.1 4.84994 19.6C4.39994 20.1 3.39994 19.85 2.59994 19.05C1.79994 18.25 1.54994 17.25 2.04994 16.75C2.54994 16.3 3.54994 16.55 4.29994 17.3Z" fill="#ED4C5C"/>
</svg>
