<svg width="26" height="26" viewBox="0 0 26 26" fill="none" xmlns="http://www.w3.org/2000/svg">
<path d="M5.41667 22.75C4.82083 22.75 4.31094 22.538 3.887 22.1141C3.46306 21.6901 3.25072 21.1799 3.25 20.5833V5.41667C3.25 4.82083 3.46233 4.31094 3.887 3.887C4.31167 3.46306 4.82156 3.25072 5.41667 3.25H11.9167C12.2236 3.25 12.4811 3.354 12.6891 3.562C12.8971 3.77 13.0007 4.02711 13 4.33333C12.9993 4.63956 12.8953 4.89703 12.688 5.10575C12.4807 5.31447 12.2236 5.41811 11.9167 5.41667H5.41667V20.5833H11.9167C12.2236 20.5833 12.4811 20.6873 12.6891 20.8953C12.8971 21.1033 13.0007 21.3604 13 21.6667C12.9993 21.9729 12.8953 22.2304 12.688 22.4391C12.4807 22.6478 12.2236 22.7514 11.9167 22.75H5.41667ZM18.6062 14.0833H10.8333C10.5264 14.0833 10.2693 13.9793 10.062 13.7713C9.85472 13.5633 9.75072 13.3062 9.75 13C9.74928 12.6938 9.85328 12.4367 10.062 12.2287C10.2707 12.0207 10.5278 11.9167 10.8333 11.9167H18.6062L16.575 9.88542C16.3764 9.68681 16.2771 9.44306 16.2771 9.15417C16.2771 8.86528 16.3764 8.6125 16.575 8.39583C16.7736 8.17917 17.0264 8.06614 17.3333 8.05675C17.6403 8.04736 17.9021 8.15136 18.1188 8.36875L21.9917 12.2417C22.2083 12.4583 22.3167 12.7111 22.3167 13C22.3167 13.2889 22.2083 13.5417 21.9917 13.7583L18.1188 17.6313C17.9021 17.8479 17.645 17.9519 17.3474 17.9433C17.0499 17.9346 16.7924 17.8216 16.575 17.6042C16.3764 17.3875 16.2818 17.1304 16.2912 16.8328C16.3006 16.5353 16.4042 16.2868 16.6021 16.0875L18.6062 14.0833Z" fill="black"/>
</svg>
