<svg width="32" height="32" viewBox="0 0 32 32" fill="none" xmlns="http://www.w3.org/2000/svg">
<path d="M15.9999 3.42847C18.5261 3.42823 20.9531 4.41215 22.7661 6.17152C24.579 7.9309 25.6352 10.3273 25.7107 12.8525L25.7153 13.1439V18.4148L27.3313 22.5793C27.3747 22.6921 27.4041 22.8083 27.4193 22.9279L27.4307 23.1085C27.4306 23.4706 27.2962 23.8199 27.0534 24.0887C26.8106 24.3574 26.4767 24.5265 26.1164 24.5633L25.9679 24.5713L20.0021 24.5725C19.9984 25.6124 19.59 26.6101 18.8635 27.3542C18.1369 28.0983 17.1493 28.5304 16.1097 28.5589C15.0701 28.5875 14.0602 28.2102 13.2939 27.5071C12.5276 26.8039 12.0652 25.8301 12.0044 24.7919L11.9976 24.5702L6.02843 24.5713C5.80308 24.5715 5.58074 24.5196 5.37875 24.4197C5.17676 24.3198 5.00058 24.1746 4.86395 23.9953C4.72733 23.8161 4.63396 23.6078 4.59113 23.3865C4.54829 23.1653 4.55715 22.9372 4.617 22.7199L4.665 22.5782L6.28329 18.4136V13.145C6.28299 11.869 6.53411 10.6053 7.02231 9.42631C7.51051 8.24731 8.22621 7.17604 9.12854 6.27372C10.0309 5.37139 11.1021 4.65568 12.2811 4.16749C13.4601 3.67929 14.7238 3.42817 15.9999 3.42847ZM18.281 24.7428L18.2856 24.5713L13.7141 24.5725C13.7115 25.1659 13.9396 25.7371 14.3504 26.1654C14.7611 26.5937 15.3222 26.8456 15.9152 26.8679C16.5082 26.8902 17.0867 26.681 17.5283 26.2847C17.97 25.8883 18.2403 25.3358 18.2821 24.7439M15.9999 5.14275C13.9254 5.14242 11.9319 5.94792 10.44 7.3893C8.9481 8.83068 8.07441 10.7952 8.00329 12.8685L7.99872 13.1439V18.5748C7.99814 18.6456 7.98932 18.7162 7.97243 18.785L7.94043 18.8856L6.39529 22.857H25.5999L24.0593 18.8868C24.0342 18.8204 24.017 18.7514 24.0079 18.681L23.9999 18.5759V13.145C24.0002 12.0943 23.7935 11.0537 23.3916 10.0829C22.9897 9.112 22.4004 8.22982 21.6575 7.48671C20.9146 6.7436 20.0326 6.15412 19.0619 5.75193C18.0911 5.34975 17.0506 5.14275 15.9999 5.14275Z" fill="black"/>
</svg>
