<svg width="16" height="16" viewBox="0 0 16 16" fill="none" xmlns="http://www.w3.org/2000/svg">
<path d="M3.33333 2.16663C2.8471 2.16663 2.38079 2.35978 2.03697 2.7036C1.69315 3.04741 1.5 3.51373 1.5 3.99996V12C1.5 12.4862 1.69315 12.9525 2.03697 13.2963C2.38079 13.6401 2.8471 13.8333 3.33333 13.8333H12.6667C13.1529 13.8333 13.6192 13.6401 13.963 13.2963C14.3068 12.9525 14.5 12.4862 14.5 12V5.99996C14.5 5.51373 14.3068 5.04741 13.963 4.7036C13.6192 4.35978 13.1529 4.16663 12.6667 4.16663H7.77333C7.57059 4.16659 7.37481 4.09264 7.22267 3.95863L5.708 2.62396C5.37329 2.32926 4.94263 2.16667 4.49667 2.16663H3.33333Z" fill="black"/>
</svg>
